<?xml version="1.0" encoding="utf-8"?>
<!-- Generator: Adobe Illustrator 16.0.0, SVG Export Plug-In . SVG Version: 6.00 Build 0)  -->
<!DOCTYPE svg PUBLIC "-//W3C//DTD SVG 1.1//EN" "http://www.w3.org/Graphics/SVG/1.1/DTD/svg11.dtd">
<svg version="1.1" id="Layer_1" xmlns="http://www.w3.org/2000/svg" xmlns:xlink="http://www.w3.org/1999/xlink" x="0px" y="0px"
	 width="690px" height="400px" viewBox="0 0 690 400" enable-background="new 0 0 690 400" xml:space="preserve">
<image overflow="visible" width="2000" height="3012" xlink:href="main-3-3.jpg"  transform="matrix(1 0 0 1 -1078.667 -796.666)">
</image>
<polygon display="none" fill="#628CAB" points="14.5,123.25 -52.5,141.125 -12.5,200 75.834,169 0,136.5 "/>
<g>
	<image overflow="visible" width="129" height="80" xlink:href="Untitled-2.png"  transform="matrix(1 0 0 1 0 121.2578)">
	</image>
	<g>
		<polyline fill="#567D9A" points="128.5,61.25 128.5,165.986 52.566,134.827 52.566,28.258 		"/>
		<polyline fill="#628CAB" points="203.914,28.258 203.914,134.565 128.5,165.986 128.5,61.25 		"/>
		<polyline fill="#6A9ABE" points="52.566,28.258 128.5,0 204.173,28.258 128.5,61.25 		"/>
	</g>
</g>
<g>
	<g>
		<g>
			<polyline fill="#369A98" points="127.781,61.25 127.65,462.653 51.716,431.493 51.847,28.258 			"/>
			<polyline fill="#51B4B0" points="292.694,36.258 292.305,439.231 216.892,470.653 217.023,69.25 			"/>
			<polyline fill="#6BCDCD" points="51.847,28.258 127.781,0 203.452,28.258 127.781,61.25 			"/>
		</g>
	</g>
</g>
<g>
	<polyline fill="#39383D" points="128.334,61.461 128.334,88.199 52.4,57.041 52.4,29.416 	"/>
	<polyline fill="#5D5D5F" points="204.349,28.789 204.349,56.555 128.334,88.199 128.334,61.461 	"/>
	<polyline fill="#727173" points="52.4,29.416 128.298,0.039 204.349,28.789 128.334,61.461 	"/>
</g>
<image overflow="visible" width="129" height="80" xlink:href="bars_81.png"  transform="matrix(1 0 0 1 1 42.1992)">
</image>
</svg>
